<svg xmlns="http://www.w3.org/2000/svg" xmlns:xlink="http://www.w3.org/1999/xlink" width="822" height="133" viewBox="0 0 822 133">
    <defs>
        <rect id="b" width="812" height="123" rx="10"/>
        <filter id="a" width="102.1%" height="113.8%" x="-1%" y="-5.3%" filterUnits="objectBoundingBox">
            <feOffset dy="2" in="SourceAlpha" result="shadowOffsetOuter1"/>
            <feGaussianBlur in="shadowOffsetOuter1" result="shadowBlurOuter1" stdDeviation="2.5"/>
            <feColorMatrix in="shadowBlurOuter1" values="0 0 0 0 0 0 0 0 0 0 0 0 0 0 0 0 0 0 0.05 0"/>
        </filter>
    </defs>
    <g fill="none" fill-rule="evenodd">
        <g transform="translate(5 3)">
            <use fill="#000" filter="url(#a)" xlink:href="#b"/>
            <use fill="#FFF" xlink:href="#b"/>
        </g>
        <text fill="#282F36" fill-opacity=".5" font-family="MissionGothic-Regular, Mission Gothic" font-size="12" transform="translate(5 3)">
            <tspan x="778.064" y="89">-1:23</tspan>
        </text>
        <g fill="#282F36" font-size="14">
            <text fill-opacity=".8" font-family="EBGaramond08-Regular, EB Garamond" transform="translate(245 21)">
                <tspan x="0" y="15">Audio Author</tspan>
            </text>
            <text font-family="EBGaramond-Bold, EB Garamond" font-weight="bold" transform="translate(245 21)">
                <tspan x="90" y="14">Audio Title</tspan>
            </text>
        </g>
        <g fill="#61A8B3">
            <path d="M45 80a1 1 0 0 0-1 1v8a1 1 0 0 0 2 0v-8a1 1 0 0 0-1-1zm1.22 4.578c-.293.185-.293.65 0 .844l7.122 4.513c.292.185.658-.048.658-.417v-9.036c0-.37-.366-.602-.658-.417l-7.123 4.513z"/>
            <path fill-rule="nonzero" d="M97.616 84.325l-12.464-7.221a.77.77 0 0 0-1.152.668v14.456a.77.77 0 0 0 1.152.668l12.464-7.221c.512-.309.512-1.054 0-1.35z"/>
            <path d="M133 80a1 1 0 0 1 1 1v8a1 1 0 0 1-2 0v-8a1 1 0 0 1 1-1zm-1.22 4.578c.293.185.293.65 0 .844l-7.122 4.513c-.292.185-.658-.048-.658-.417v-9.036c0-.37.366-.602.658-.417l7.123 4.513z"/>
        </g>
        <path fill="#222" fill-opacity=".1" d="M405.587 72.35c.888 0 1.609.714 1.609 1.594v24.713c0 .881-.72 1.595-1.61 1.595a1.602 1.602 0 0 1-1.608-1.595V73.944c0-.88.72-1.594 1.609-1.594zm-11.263 3.487c.889 0 1.609.714 1.609 1.595V95.17c0 .88-.72 1.594-1.609 1.594a1.602 1.602 0 0 1-1.609-1.594V77.432c0-.88.72-1.595 1.609-1.595zm-11.263 3.488c.89 0 1.61.714 1.61 1.595v10.762c0 .88-.72 1.594-1.61 1.594a1.602 1.602 0 0 1-1.608-1.594V80.92c0-.88.72-1.595 1.608-1.595zM371.8 72.35c.888 0 1.609.714 1.609 1.594v24.713c0 .881-.72 1.595-1.61 1.595a1.602 1.602 0 0 1-1.608-1.595V73.944c0-.88.72-1.594 1.609-1.594zm-11.263-6.976c.889 0 1.61.714 1.61 1.595v38.664c0 .88-.721 1.594-1.61 1.594a1.602 1.602 0 0 1-1.609-1.594V66.969c0-.881.72-1.595 1.61-1.595zM349.274 58.4c.888 0 1.609.713 1.609 1.594v52.615c0 .88-.72 1.595-1.61 1.595a1.602 1.602 0 0 1-1.608-1.595V59.993c0-.88.72-1.594 1.609-1.594zm-11.263 3.487c.889 0 1.61.714 1.61 1.595v45.64c0 .88-.721 1.594-1.61 1.594a1.602 1.602 0 0 1-1.609-1.594V63.48c0-.88.72-1.595 1.61-1.595zM488.473 72.35c.951 0 1.723.714 1.723 1.594v24.713c0 .881-.772 1.595-1.723 1.595-.951 0-1.723-.714-1.723-1.595V73.944c0-.88.772-1.594 1.723-1.594zm-12.058 3.487c.951 0 1.722.714 1.722 1.595V95.17c0 .88-.77 1.594-1.722 1.594-.951 0-1.723-.714-1.723-1.594V77.432c0-.88.772-1.595 1.723-1.595zm-12.058 3.488c.951 0 1.723.714 1.723 1.595v10.762c0 .88-.772 1.594-1.723 1.594-.951 0-1.723-.714-1.723-1.594V80.92c0-.88.772-1.595 1.723-1.595zm-12.058-6.975c.951 0 1.722.714 1.722 1.594v24.713c0 .881-.77 1.595-1.722 1.595-.951 0-1.723-.714-1.723-1.595V73.944c0-.88.772-1.594 1.723-1.594zm-12.058-6.976c.951 0 1.722.714 1.722 1.595v38.664c0 .88-.77 1.594-1.722 1.594s-1.723-.714-1.723-1.594V66.969c0-.881.771-1.595 1.723-1.595zM428.183 58.4c.951 0 1.722.713 1.722 1.594v52.615c0 .88-.77 1.595-1.722 1.595s-1.723-.714-1.723-1.595V59.993c0-.88.771-1.594 1.723-1.594zm-12.058 3.487c.951 0 1.722.714 1.722 1.595v45.64c0 .88-.77 1.594-1.722 1.594s-1.723-.714-1.723-1.594V63.48c0-.88.771-1.595 1.723-1.595zM571.473 72.35c.951 0 1.723.714 1.723 1.594v24.713c0 .881-.772 1.595-1.723 1.595-.951 0-1.723-.714-1.723-1.595V73.944c0-.88.772-1.594 1.723-1.594zm-12.058 3.487c.951 0 1.722.714 1.722 1.595V95.17c0 .88-.77 1.594-1.722 1.594-.951 0-1.723-.714-1.723-1.594V77.432c0-.88.772-1.595 1.723-1.595zm-12.058 3.488c.951 0 1.723.714 1.723 1.595v10.762c0 .88-.772 1.594-1.723 1.594-.951 0-1.723-.714-1.723-1.594V80.92c0-.88.772-1.595 1.723-1.595zm-12.058-6.975c.951 0 1.722.714 1.722 1.594v24.713c0 .881-.77 1.595-1.722 1.595-.951 0-1.723-.714-1.723-1.595V73.944c0-.88.772-1.594 1.723-1.594zm-12.058-6.976c.951 0 1.722.714 1.722 1.595v38.664c0 .88-.77 1.594-1.722 1.594s-1.723-.714-1.723-1.594V66.969c0-.881.771-1.595 1.723-1.595zM511.183 58.4c.951 0 1.722.713 1.722 1.594v52.615c0 .88-.77 1.595-1.722 1.595s-1.723-.714-1.723-1.595V59.993c0-.88.771-1.594 1.723-1.594zm-12.058 3.487c.951 0 1.722.714 1.722 1.595v45.64c0 .88-.77 1.594-1.722 1.594s-1.723-.714-1.723-1.594V63.48c0-.88.771-1.595 1.723-1.595zM581.125 100.252c-.951 0-1.723-.714-1.723-1.595V73.944c0-.88.772-1.594 1.723-1.594.951 0 1.722.714 1.722 1.594v24.713c0 .881-.77 1.595-1.722 1.595zm12.058-3.488c-.951 0-1.723-.714-1.723-1.594V77.432c0-.88.772-1.594 1.723-1.594.951 0 1.722.713 1.722 1.594V95.17c0 .88-.77 1.594-1.722 1.594zm12.058-3.488c-.951 0-1.723-.714-1.723-1.594V80.92c0-.881.772-1.595 1.723-1.595.951 0 1.722.714 1.722 1.595v10.762c0 .88-.77 1.594-1.722 1.594zm12.058 6.976c-.951 0-1.723-.714-1.723-1.595V73.944c0-.88.772-1.594 1.723-1.594.951 0 1.723.714 1.723 1.594v24.713c0 .881-.772 1.595-1.723 1.595zm12.058 6.975c-.951 0-1.723-.714-1.723-1.594V66.969c0-.88.772-1.595 1.723-1.595.951 0 1.723.714 1.723 1.595v38.664c0 .88-.772 1.594-1.723 1.594zm12.058 6.976c-.951 0-1.723-.714-1.723-1.595V59.993c0-.88.772-1.594 1.723-1.594.951 0 1.723.714 1.723 1.594v52.615c0 .881-.772 1.595-1.723 1.595zm12.058-3.488c-.951 0-1.723-.714-1.723-1.594V63.48c0-.88.772-1.595 1.723-1.595.951 0 1.723.714 1.723 1.595v45.64c0 .88-.772 1.594-1.723 1.594zM665.125 100.252c-.951 0-1.723-.714-1.723-1.595V73.944c0-.88.772-1.594 1.723-1.594.951 0 1.722.714 1.722 1.594v24.713c0 .881-.77 1.595-1.722 1.595zm12.058-3.488c-.951 0-1.723-.714-1.723-1.594V77.432c0-.88.772-1.594 1.723-1.594.951 0 1.722.713 1.722 1.594V95.17c0 .88-.77 1.594-1.722 1.594zm12.058-3.488c-.951 0-1.723-.714-1.723-1.594V80.92c0-.881.772-1.595 1.723-1.595.951 0 1.722.714 1.722 1.595v10.762c0 .88-.77 1.594-1.722 1.594zm12.058 6.976c-.951 0-1.723-.714-1.723-1.595V73.944c0-.88.772-1.594 1.723-1.594.951 0 1.723.714 1.723 1.594v24.713c0 .881-.772 1.595-1.723 1.595zm12.058 6.975c-.951 0-1.723-.714-1.723-1.594V66.969c0-.88.772-1.595 1.723-1.595.951 0 1.723.714 1.723 1.595v38.664c0 .88-.772 1.594-1.723 1.594zm12.058 6.976c-.951 0-1.723-.714-1.723-1.595V59.993c0-.88.772-1.594 1.723-1.594.951 0 1.723.714 1.723 1.594v52.615c0 .881-.772 1.595-1.723 1.595zm12.058-3.488c-.951 0-1.723-.714-1.723-1.594V63.48c0-.88.772-1.595 1.723-1.595.951 0 1.723.714 1.723 1.595v45.64c0 .88-.772 1.594-1.723 1.594z"/>
        <path fill="#59A8AA" d="M326.606 65.597c.881 0 1.596.713 1.596 1.593v38.62c0 .88-.715 1.593-1.596 1.593a1.594 1.594 0 0 1-1.596-1.593V67.19c0-.88.714-1.593 1.596-1.593zm-11.173 3.484c.881 0 1.596.713 1.596 1.593v31.652c0 .88-.715 1.593-1.596 1.593a1.594 1.594 0 0 1-1.596-1.593V70.674c0-.88.714-1.593 1.596-1.593zm-11.173 3.484c.881 0 1.596.713 1.596 1.592v24.686c0 .88-.715 1.592-1.596 1.592a1.594 1.594 0 0 1-1.597-1.592V74.157c0-.88.715-1.592 1.597-1.592zm-11.173-3.484c.881 0 1.596.713 1.596 1.593v31.652c0 .88-.715 1.593-1.596 1.593a1.594 1.594 0 0 1-1.597-1.593V70.674c0-.88.715-1.593 1.597-1.593zm-11.174-3.484c.882 0 1.597.713 1.597 1.593v38.62c0 .88-.715 1.593-1.597 1.593a1.594 1.594 0 0 1-1.596-1.593V67.19c0-.88.715-1.593 1.596-1.593zm-11.173 6.968c.882 0 1.597.713 1.597 1.592v24.686c0 .88-.715 1.592-1.597 1.592a1.594 1.594 0 0 1-1.596-1.592V74.157c0-.88.715-1.592 1.596-1.592zm-11.173 6.967c.882 0 1.596.713 1.596 1.593v10.75c0 .88-.714 1.593-1.596 1.593a1.594 1.594 0 0 1-1.596-1.593v-10.75c0-.88.715-1.593 1.596-1.593zm-11.173-3.483c.882 0 1.596.713 1.596 1.592V95.36c0 .88-.714 1.592-1.596 1.592a1.594 1.594 0 0 1-1.596-1.592V77.64c0-.88.715-1.592 1.596-1.592z"/>
    </g>
</svg>
