<svg xmlns="http://www.w3.org/2000/svg" xmlns:xlink="http://www.w3.org/1999/xlink" width="37" height="48" viewBox="0 0 37 48">
    <defs>
        <path id="a" d="M0 .006h27.744v44.398H0z"/>
    </defs>
    <g fill="none" fill-rule="evenodd">
        <path fill="#FFF" d="M18.26 47.86c-1.608 0-3.217-.32-4.715-.959a.717.717 0 0 1-.377-.936.704.704 0 0 1 .926-.38 10.676 10.676 0 0 0 8.333 0l1.072-.457c7.052-3.006 11.609-9.946 11.609-17.681V5.157l-7.364-1.972v11.909c0 .35-.252.65-.594.705L9.596 18.657a.701.701 0 0 1-.57-.161.718.718 0 0 1-.249-.544V8.367a.71.71 0 0 1 .707-.715c.39 0 .707.32.707.715v8.746l16.14-2.628V2.257c0-.222.102-.43.275-.566.174-.136.4-.18.613-.125l8.777 2.35c.31.083.526.367.526.69v22.84c0 8.312-4.896 15.769-12.473 18.998l-1.072.457a12.035 12.035 0 0 1-4.716.959"/>
        <g transform="translate(0 .35)">
            <mask id="b" fill="#fff">
                <use xlink:href="#a"/>
            </mask>
            <path fill="#FFF" d="M9.484 44.404a.7.7 0 0 1-.389-.118C3.4 40.502 0 34.128 0 27.236V4.256c0-.323.214-.605.522-.69.06-.016 6.072-1.662 8.77-2.303C15.682-.257 17.35-.18 22.719.358a.713.713 0 0 1 .634.781.704.704 0 0 1-.773.64c-5.29-.53-6.775-.597-12.965.875-2.208.525-6.678 1.735-8.201 2.15v22.432c0 5.955 2.729 11.493 7.363 15.071V26.948c0-.35.252-.65.595-.705l17.553-2.858a.7.7 0 0 1 .571.161.718.718 0 0 1 .248.544v12.146a.71.71 0 0 1-.706.714.71.71 0 0 1-.707-.714V24.929l-16.14 2.628v16.132a.716.716 0 0 1-.372.63.7.7 0 0 1-.335.085" mask="url(#b)"/>
        </g>
    </g>
</svg>
